<svg width="55" height="40" viewBox="0 0 55 40" fill="none" xmlns="http://www.w3.org/2000/svg">
<path d="M40.5907 40C40.5907 40 38.8955 37.9524 37.4829 36.1429C43.6515 34.381 46.006 30.4763 46.006 30.4763C44.0753 31.762 42.2389 32.6667 40.5907 33.2858C38.2363 34.2858 35.976 34.9524 33.7628 35.3334C29.2423 36.1905 25.0985 35.9524 21.5668 35.2858C18.8827 34.762 16.5753 34.0001 14.6447 33.2382C13.5616 32.8096 12.3844 32.2858 11.2072 31.6191C11.0659 31.5239 10.9247 31.4763 10.7834 31.381C10.6892 31.3334 10.6421 31.2858 10.595 31.2382C9.74743 30.762 9.27654 30.4287 9.27654 30.4287C9.27654 30.4287 11.5368 34.2381 17.5171 36.0477C16.1045 37.8572 14.3622 40 14.3622 40C3.95548 39.6667 0 32.762 0 32.762C0 17.4288 6.78082 5.00035 6.78082 5.00035C13.5616 -0.14246 20.0128 0.00039572 20.0128 0.00039572L20.4837 0.571817C12.0077 3.04798 8.09931 6.80985 8.09931 6.80985C8.09931 6.80985 9.13527 6.23843 10.8776 5.42891C15.9161 3.19084 19.9187 2.5718 21.5668 2.42894C21.8493 2.38132 22.0848 2.33371 22.3673 2.33371C25.2397 1.95276 28.4889 1.85752 31.8793 2.23847C36.3527 2.76227 41.1558 4.09559 46.0531 6.80985C46.0531 6.80985 42.333 3.23846 34.3279 0.762292L34.9872 0.00039572C34.9872 0.00039572 41.4384 -0.14246 48.2192 5.00035C48.2192 5.00035 55 17.4288 55 32.762C55 32.762 50.9974 39.6667 40.5907 40ZM18.6943 17.7621C16.0103 17.7621 13.8913 20.1431 13.8913 23.0478C13.8913 25.9525 16.0574 28.3334 18.6943 28.3334C21.3784 28.3334 23.4974 25.9525 23.4974 23.0478C23.5445 20.1431 21.3784 17.7621 18.6943 17.7621ZM35.8818 17.7621C33.1978 17.7621 31.0788 20.1431 31.0788 23.0478C31.0788 25.9525 33.2449 28.3334 35.8818 28.3334C38.5659 28.3334 40.6849 25.9525 40.6849 23.0478C40.6849 20.1431 38.5659 17.7621 35.8818 17.7621Z" fill="url(#paint0_linear_5_139)"/>
<defs>
<linearGradient id="paint0_linear_5_139" x1="14.2788" y1="20" x2="38.9231" y2="20" gradientUnits="userSpaceOnUse">
<stop stop-color="#14CCAB"/>
<stop offset="1" stop-color="#00FFD1"/>
</linearGradient>
</defs>
</svg>
