<svg width="787" height="84" viewBox="0 0 787 84" fill="none" xmlns="http://www.w3.org/2000/svg">
<path d="M67.579 0H77.538L105.281 61.1768L132.313 0H142.272L110.972 68.2904H99.5901L72.5585 8.5363L45.5269 68.2904H34.1452L0 0H9.95901L39.8361 61.1768L67.579 0Z" fill="#14CCAB"/>
<path d="M163.239 69.1462C158.259 69.1462 154.032 68.8091 150.557 68.1348C147.082 67.4345 144.255 66.2415 142.076 64.5557C139.898 62.87 138.316 60.6136 137.33 57.7867C136.344 54.9598 135.852 51.4067 135.852 47.1275C135.852 42.2258 136.344 38.1799 137.33 34.9899C138.316 31.774 139.898 29.2194 142.076 27.3262C144.255 25.4329 147.082 24.1102 150.557 23.3581C154.032 22.606 158.259 22.2299 163.239 22.2299C166.792 22.2299 169.865 22.4893 172.459 23.008C175.078 23.5267 177.309 24.2788 179.15 25.2643C181.017 26.2499 182.522 27.4429 183.663 28.8433C184.83 30.2438 185.738 31.7221 186.386 33.2782C187.06 34.8084 187.514 36.6109 187.747 38.6857C188.007 40.7605 188.137 42.952 188.137 45.2602L187.514 47.7499H143.321C143.321 51.1733 143.658 53.9873 144.332 56.1917C145.007 58.3703 146.122 59.9653 147.678 60.9767C149.234 61.9882 151.283 62.6366 153.825 62.9218C156.366 63.1812 159.504 63.3109 163.239 63.3109C166.662 63.3109 169.489 63.2201 171.72 63.0386C173.976 62.8311 175.766 62.455 177.088 61.9104C178.411 61.3658 179.332 60.6136 179.85 59.654C180.395 58.6685 180.667 57.3977 180.667 55.8416H188.137C188.137 58.2536 187.709 60.3154 186.853 62.0271C186.023 63.7129 184.635 65.0874 182.69 66.1507C180.745 67.1881 178.177 67.9403 174.988 68.4071C171.823 68.8999 167.907 69.1462 163.239 69.1462ZM163.239 28.4543C160.749 28.4543 158.519 28.5062 156.548 28.6099C154.603 28.7137 152.891 28.9471 151.413 29.3102C149.96 29.6473 148.715 30.1531 147.678 30.8274C146.641 31.4757 145.798 32.2538 145.149 33.1615C144.527 34.0433 144.06 35.3011 143.749 36.935C143.464 38.543 143.321 40.4881 143.321 42.7704H180.667C180.667 39.736 180.343 37.363 179.695 35.6513C179.046 33.9136 178.022 32.4872 176.621 31.372C175.221 30.2568 173.418 29.4917 171.214 29.0768C169.01 28.6618 166.351 28.4543 163.239 28.4543Z" fill="#14CCAB"/>
<path d="M225.483 69.1462C221.904 69.1462 218.921 68.8999 216.535 68.4071C214.175 67.9403 212.243 67.4345 210.739 66.8899C209.235 66.3193 208.093 65.4375 207.315 64.2445C206.537 63.0256 205.954 62.079 205.565 61.4047V68.2904H198.096V8.5363H205.565V27.7152C205.902 27.1705 206.46 26.587 207.238 25.9646C208.042 25.3162 209.196 24.7197 210.7 24.1751C212.23 23.6045 214.188 23.1377 216.574 22.7746C218.96 22.4115 221.93 22.2299 225.483 22.2299C230.462 22.2299 234.69 22.606 238.165 23.3581C241.64 24.1102 244.467 25.394 246.646 27.2094C248.824 29.0249 250.406 31.4628 251.392 34.5231C252.377 37.5575 252.87 41.3699 252.87 45.9604C252.87 50.4731 252.377 54.2207 251.392 57.2032C250.406 60.1857 248.824 62.5588 246.646 64.3223C244.467 66.0859 241.64 67.3308 238.165 68.057C234.69 68.7831 230.462 69.1462 225.483 69.1462ZM225.483 63.3109C228.388 63.3109 230.89 63.2201 232.991 63.0386C235.118 62.857 236.92 62.5328 238.398 62.066C239.877 61.5992 241.07 60.9508 241.977 60.1209C242.911 59.291 243.624 58.2406 244.117 56.9698C244.636 55.673 244.973 54.1299 245.129 52.3404C245.31 50.525 245.401 48.3983 245.401 45.9604C245.401 43.5225 245.31 41.3959 245.129 39.5804C244.973 37.765 244.636 36.2218 244.117 34.951C243.624 33.6543 242.911 32.5909 241.977 31.761C241.07 30.9052 239.877 30.2438 238.398 29.777C236.92 29.2842 235.118 28.9471 232.991 28.7655C230.89 28.584 228.388 28.4932 225.483 28.4932C222.993 28.4932 220.776 28.5581 218.831 28.6877C216.885 28.7915 215.174 29.0508 213.695 29.4658C212.217 29.8807 210.959 30.4773 209.922 31.2553C208.91 32.0333 208.08 33.0707 207.432 34.3675C206.784 35.6642 206.304 37.2722 205.993 39.1914C205.707 41.1106 205.565 43.4058 205.565 46.0771C205.565 48.7225 205.707 50.9918 205.993 52.885C206.304 54.7523 206.784 56.3214 207.432 57.5922C208.08 58.863 208.91 59.8875 209.922 60.6655C210.959 61.4176 212.217 61.9882 213.695 62.3772C215.174 62.7662 216.885 63.0256 218.831 63.1553C220.776 63.259 222.993 63.3109 225.483 63.3109Z" fill="#14CCAB"/>
<path d="M313.869 34.6787C315.114 34.6787 316.203 34.575 317.137 34.3675C318.071 34.16 318.836 33.758 319.432 33.1615C320.055 32.5391 320.521 31.6573 320.833 30.5162C321.144 29.375 321.299 27.8708 321.299 26.0035C321.299 23.9287 321.144 22.1781 320.833 20.7516C320.521 19.3252 320.003 18.1452 319.276 17.2115C318.55 16.2779 317.565 15.5647 316.32 15.0719C315.101 14.5791 313.571 14.216 311.729 13.9826C309.888 13.7492 307.71 13.6195 305.194 13.5936C302.678 13.5417 299.76 13.5158 296.441 13.5158C291.876 13.5158 288.025 13.5806 284.887 13.7103C281.775 13.8141 279.194 14.0345 277.145 14.3717C275.122 14.6829 273.566 15.1238 272.477 15.6943C271.388 16.2649 270.584 17.017 270.065 17.9507C269.572 18.8584 269.274 19.9736 269.17 21.2963C269.092 22.619 269.053 24.1751 269.053 25.9646H261.584C261.584 22.8264 261.921 20.1811 262.596 18.0285C263.296 15.8759 264.307 14.1123 265.63 12.7378C266.979 11.3373 268.639 10.2739 270.61 9.54776C272.581 8.79565 274.85 8.26398 277.418 7.95276C280.011 7.61561 282.89 7.4211 286.054 7.36923C289.244 7.31736 292.706 7.29142 296.441 7.29142C300.175 7.29142 303.56 7.35626 306.594 7.48593C309.655 7.58967 312.378 7.84902 314.764 8.26398C317.176 8.67894 319.264 9.28841 321.027 10.0924C322.791 10.8964 324.243 11.9986 325.384 13.3991C326.551 14.7736 327.407 16.4854 327.952 18.5342C328.522 20.5831 328.808 23.0599 328.808 25.9646C328.808 27.8319 328.678 29.4139 328.419 30.7107C328.185 32.0074 327.809 33.1096 327.29 34.0174C326.798 34.8992 326.162 35.6383 325.384 36.2348C324.606 36.8054 323.672 37.3241 322.583 37.7909C323.672 38.2577 324.606 38.8542 325.384 39.5804C326.162 40.3066 326.798 41.2013 327.29 42.2647C327.809 43.3021 328.185 44.534 328.419 45.9604C328.678 47.3609 328.808 48.9948 328.808 50.8621C328.808 53.7668 328.522 56.2436 327.952 58.2925C327.407 60.3413 326.551 62.066 325.384 63.4665C324.243 64.841 322.791 65.9303 321.027 66.7343C319.264 67.5383 317.176 68.1477 314.764 68.5627C312.378 68.9777 309.655 69.237 306.594 69.3407C303.56 69.4704 300.175 69.5353 296.441 69.5353C292.706 69.5353 289.244 69.5093 286.054 69.4575C282.89 69.4056 280.011 69.1981 277.418 68.835C274.85 68.4719 272.581 67.9014 270.61 67.1233C268.639 66.3193 266.979 65.1782 265.63 63.6999C264.307 62.2216 263.296 60.3413 262.596 58.0591C261.921 55.7768 261.584 52.9628 261.584 49.6172H269.053C269.053 51.5883 269.105 53.3 269.209 54.7523C269.313 56.1788 269.611 57.3977 270.104 58.4092C270.597 59.4206 271.388 60.2506 272.477 60.8989C273.566 61.5214 275.122 62.0141 277.145 62.3772C279.194 62.7403 281.775 62.9867 284.887 63.1164C288.025 63.246 291.876 63.3109 296.441 63.3109C299.76 63.3109 302.678 63.2979 305.194 63.272C307.71 63.2201 309.888 63.0775 311.729 62.844C313.571 62.6106 315.101 62.2475 316.32 61.7548C317.565 61.262 318.55 60.5488 319.276 59.6151C320.003 58.6815 320.521 57.5014 320.833 56.075C321.144 54.6486 321.299 52.898 321.299 50.8232C321.299 48.6447 321.144 46.907 320.833 45.6103C320.521 44.2876 320.055 43.2761 319.432 42.5759C318.836 41.8757 318.071 41.4218 317.137 41.2143C316.203 41.0068 315.114 40.9031 313.869 40.9031H286.482V34.6787H313.869Z" fill="#14CCAB"/>
<path d="M409.547 52.6405H355.484L346.947 68.2904H336.988L376.824 0H388.206L428.042 68.2904H418.083L409.547 52.6405ZM405.279 45.5269L382.515 5.69086L359.752 45.5269H405.279Z" fill="#14CCAB"/>
<path d="M463.254 22.2299C468.234 22.2299 472.461 22.606 475.936 23.3581C479.412 24.1102 482.239 25.394 484.417 27.2094C486.596 29.0249 488.178 31.4628 489.163 34.5231C490.149 37.5575 490.642 41.3699 490.642 45.9604C490.642 50.4731 490.149 54.2207 489.163 57.2032C488.178 60.1857 486.596 62.5588 484.417 64.3223C482.239 66.0859 479.412 67.3308 475.936 68.057C472.461 68.7831 468.234 69.1462 463.254 69.1462C459.701 69.1462 456.732 68.9517 454.346 68.5627C451.96 68.1737 450.002 67.6939 448.471 67.1233C446.967 66.5268 445.813 65.8914 445.009 65.2171C444.231 64.5428 443.673 63.9074 443.336 63.3109V83.2289H435.867V23.4748H443.336V27.6374C443.673 27.1187 444.231 26.5481 445.009 25.9257C445.813 25.2773 446.967 24.6808 448.471 24.1362C450.002 23.5915 451.96 23.1377 454.346 22.7746C456.732 22.4115 459.701 22.2299 463.254 22.2299ZM463.254 28.4543C460.765 28.4543 458.547 28.5192 456.602 28.6488C454.657 28.7785 452.945 29.0508 451.467 29.4658C449.989 29.8548 448.731 30.4383 447.693 31.2164C446.682 31.9685 445.852 32.9929 445.204 34.2897C444.555 35.5605 444.075 37.1425 443.764 39.0358C443.479 40.929 443.336 43.1983 443.336 45.8437C443.336 48.515 443.479 50.8102 443.764 52.7294C444.075 54.6486 444.555 56.2566 445.204 57.5533C445.852 58.8241 446.682 59.8486 447.693 60.6266C448.731 61.3787 449.989 61.9623 451.467 62.3772C452.945 62.7662 454.657 63.0256 456.602 63.1553C458.547 63.259 460.765 63.3109 463.254 63.3109C466.159 63.3109 468.662 63.2201 470.762 63.0386C472.889 62.857 474.692 62.5328 476.17 62.066C477.648 61.5992 478.841 60.9508 479.749 60.1209C480.683 59.291 481.396 58.2406 481.889 56.9698C482.407 55.673 482.744 54.1299 482.9 52.3404C483.082 50.5249 483.172 48.3983 483.172 45.9604C483.172 43.5225 483.082 41.3959 482.9 39.5804C482.744 37.765 482.407 36.2089 481.889 34.9121C481.396 33.6154 480.683 32.552 479.749 31.7221C478.841 30.8922 477.648 30.2309 476.17 29.7381C474.692 29.2453 472.889 28.9082 470.762 28.7266C468.662 28.5451 466.159 28.4543 463.254 28.4543Z" fill="#14CCAB"/>
<path d="M537.947 38.0632C537.947 36.1959 537.804 34.6528 537.519 33.4338C537.26 32.189 536.624 31.2034 535.613 30.4772C534.601 29.7251 533.097 29.2064 531.1 28.9212C529.129 28.6099 526.432 28.4543 523.008 28.4543C519.663 28.4543 516.94 28.7526 514.839 29.3491C512.738 29.9196 511.091 30.7366 509.898 31.7999C508.705 32.8633 507.888 34.1341 507.447 35.6124C507.032 37.0907 506.825 38.7375 506.825 40.553V68.2904H499.356V23.4748H506.825V30.594C507.084 29.79 507.564 28.9082 508.264 27.9486C508.965 26.9631 510.028 26.0553 511.454 25.2254C512.881 24.3696 514.722 23.6564 516.978 23.0858C519.261 22.5152 522.101 22.2299 525.498 22.2299C529.388 22.2299 532.552 22.5801 534.99 23.2803C537.428 23.9546 539.321 24.9661 540.67 26.3147C542.045 27.6374 542.965 29.2842 543.432 31.2553C543.925 33.2263 544.171 35.4957 544.171 38.0632H537.947Z" fill="#14CCAB"/>
<path d="M575.293 69.1462C570.314 69.1462 566.086 68.8091 562.611 68.1348C559.136 67.4345 556.309 66.2415 554.13 64.5557C551.952 62.87 550.37 60.6136 549.384 57.7867C548.399 54.9598 547.906 51.4067 547.906 47.1275C547.906 42.2258 548.399 38.1799 549.384 34.9899C550.37 31.774 551.952 29.2194 554.13 27.3262C556.309 25.4329 559.136 24.1102 562.611 23.3581C566.086 22.606 570.314 22.2299 575.293 22.2299C578.846 22.2299 581.92 22.4893 584.513 23.008C587.132 23.5267 589.363 24.2788 591.204 25.2643C593.072 26.2499 594.576 27.4429 595.717 28.8433C596.884 30.2438 597.792 31.7221 598.44 33.2782C599.114 34.8084 599.568 36.6109 599.802 38.6857C600.061 40.7604 600.191 42.9519 600.191 45.2602L599.568 47.7499H555.375C555.375 51.1733 555.712 53.9873 556.387 56.1917C557.061 58.3703 558.176 59.9653 559.732 60.9767C561.288 61.9882 563.337 62.6366 565.879 62.9218C568.42 63.1812 571.559 63.3109 575.293 63.3109C578.717 63.3109 581.543 63.2201 583.774 63.0386C586.03 62.8311 587.82 62.455 589.142 61.9104C590.465 61.3657 591.386 60.6136 591.904 59.654C592.449 58.6685 592.721 57.3977 592.721 55.8416H600.191C600.191 58.2536 599.763 60.3154 598.907 62.0271C598.077 63.7129 596.689 65.0874 594.744 66.1507C592.799 67.1881 590.232 67.9403 587.042 68.4071C583.878 68.8998 579.961 69.1462 575.293 69.1462ZM575.293 28.4543C572.803 28.4543 570.573 28.5062 568.602 28.6099C566.657 28.7137 564.945 28.9471 563.467 29.3102C562.014 29.6473 560.77 30.1531 559.732 30.8274C558.695 31.4757 557.852 32.2538 557.204 33.1615C556.581 34.0433 556.114 35.3011 555.803 36.935C555.518 38.543 555.375 40.4881 555.375 42.7704H592.721C592.721 39.736 592.397 37.363 591.749 35.6513C591.101 33.9136 590.076 32.4872 588.676 31.372C587.275 30.2568 585.473 29.4917 583.268 29.0768C581.064 28.6618 578.405 28.4543 575.293 28.4543Z" fill="#14CCAB"/>
<path d="M654.965 68.2904V43.3928C654.965 40.6178 654.758 38.2837 654.343 36.3904C653.928 34.4712 653.098 32.9281 651.853 31.761C650.608 30.594 648.845 29.7511 646.562 29.2324C644.28 28.7137 641.272 28.4543 637.537 28.4543C633.491 28.4543 630.171 28.7526 627.578 29.3491C625.01 29.9456 622.988 30.7885 621.509 31.8777C620.031 32.967 619.006 34.2767 618.436 35.8069C617.891 37.337 617.619 39.0358 617.619 40.9031V68.2904H610.15V23.4748H617.619V30.9441C618.164 29.6733 618.942 28.584 619.953 27.6763C620.965 26.7426 622.106 25.9516 623.377 25.3032C624.647 24.6549 626.022 24.1362 627.5 23.7471C628.978 23.3322 630.457 23.021 631.935 22.8135C633.413 22.5801 634.84 22.4245 636.214 22.3466C637.615 22.2688 638.886 22.2299 640.027 22.2299C643.346 22.2299 646.199 22.4374 648.585 22.8524C650.997 23.2673 653.033 23.8768 654.693 24.6808C656.379 25.4848 657.727 26.4833 658.739 27.6763C659.75 28.8693 660.528 30.2568 661.073 31.8388C661.644 33.3949 662.02 35.1455 662.201 37.0907C662.383 39.0098 662.473 41.1106 662.473 43.3928L662.435 68.2904H654.965Z" fill="#14CCAB"/>
<path d="M698.614 69.1462C693.634 69.1462 689.407 68.7831 685.932 68.057C682.456 67.3308 679.629 66.0859 677.451 64.3223C675.272 62.5588 673.69 60.1857 672.705 57.2032C671.719 54.2207 671.226 50.4731 671.226 45.9604C671.226 41.2921 671.719 37.4278 672.705 34.3675C673.69 31.3072 675.272 28.8822 677.451 27.0927C679.629 25.3032 682.456 24.0454 685.932 23.3192C689.407 22.593 693.634 22.2299 698.614 22.2299C702.141 22.2299 705.097 22.4115 707.484 22.7746C709.87 23.1377 711.815 23.5915 713.319 24.1362C714.849 24.6808 716.003 25.2773 716.781 25.9257C717.585 26.5481 718.169 27.1316 718.532 27.6763V8.5363H726.001V68.2904H718.532V61.6381C718.532 61.6381 717.909 62.3772 716.664 63.8555C715.575 64.9188 714.369 65.7747 713.047 66.4231C711.724 67.0714 709.87 67.6939 707.484 68.2904C705.097 68.8609 702.141 69.1462 698.614 69.1462ZM698.614 63.3109C701.104 63.3109 703.321 63.259 705.266 63.1553C707.211 63.0256 708.923 62.7662 710.401 62.3772C711.879 61.9882 713.124 61.4176 714.136 60.6655C715.173 59.8875 716.016 58.863 716.664 57.5922C717.313 56.3214 717.78 54.7523 718.065 52.885C718.376 50.9918 718.532 48.7225 718.532 46.0771C718.532 43.328 718.376 40.9939 718.065 39.0747C717.78 37.1296 717.313 35.5086 716.664 34.2119C716.016 32.8892 715.173 31.8518 714.136 31.0997C713.124 30.3476 711.879 29.777 710.401 29.388C708.923 28.973 707.211 28.7137 705.266 28.6099C703.321 28.5062 701.104 28.4543 698.614 28.4543C695.709 28.4543 693.193 28.5451 691.067 28.7266C688.966 28.9082 687.176 29.2324 685.698 29.6992C684.22 30.166 683.014 30.8144 682.08 31.6443C681.173 32.4742 680.459 33.5376 679.941 34.8343C679.448 36.1311 679.111 37.7001 678.929 39.5415C678.774 41.357 678.696 43.4966 678.696 45.9604C678.696 48.3983 678.774 50.5249 678.929 52.3404C679.111 54.1299 679.448 55.673 679.941 56.9698C680.459 58.2406 681.173 59.291 682.08 60.1209C683.014 60.9508 684.22 61.5992 685.698 62.066C687.176 62.5328 688.966 62.857 691.067 63.0386C693.193 63.2201 695.709 63.3109 698.614 63.3109Z" fill="#14CCAB"/>
<path d="M762.102 69.1462C757.123 69.1462 752.896 68.8091 749.42 68.1348C745.945 67.4345 743.118 66.2415 740.94 64.5557C738.761 62.87 737.179 60.6136 736.193 57.7867C735.208 54.9598 734.715 51.4067 734.715 47.1275C734.715 42.2258 735.208 38.1799 736.193 34.9899C737.179 31.774 738.761 29.2194 740.94 27.3262C743.118 25.4329 745.945 24.1102 749.42 23.3581C752.896 22.606 757.123 22.2299 762.102 22.2299C765.656 22.2299 768.729 22.4893 771.322 23.008C773.942 23.5267 776.172 24.2788 778.014 25.2643C779.881 26.2499 781.385 27.4429 782.526 28.8433C783.693 30.2438 784.601 31.7221 785.249 33.2782C785.924 34.8084 786.378 36.6109 786.611 38.6857C786.87 40.7604 787 42.9519 787 45.2602L786.378 47.7499H742.184C742.184 51.1733 742.522 53.9873 743.196 56.1917C743.87 58.3703 744.985 59.9653 746.542 60.9767C748.098 61.9882 750.146 62.6366 752.688 62.9218C755.23 63.1812 758.368 63.3109 762.102 63.3109C765.526 63.3109 768.353 63.2201 770.583 63.0386C772.84 62.8311 774.629 62.455 775.952 61.9104C777.274 61.3657 778.195 60.6136 778.714 59.654C779.258 58.6685 779.531 57.3977 779.531 55.8416H787C787 58.2536 786.572 60.3154 785.716 62.0271C784.886 63.7129 783.499 65.0874 781.554 66.1507C779.609 67.1881 777.041 67.9403 773.851 68.4071C770.687 68.8998 766.771 69.1462 762.102 69.1462ZM762.102 28.4543C759.613 28.4543 757.382 28.5062 755.411 28.6099C753.466 28.7137 751.754 28.9471 750.276 29.3102C748.824 29.6473 747.579 30.1531 746.542 30.8274C745.504 31.4757 744.661 32.2538 744.013 33.1615C743.39 34.0433 742.924 35.3011 742.612 36.935C742.327 38.543 742.184 40.4881 742.184 42.7704H779.531C779.531 39.736 779.207 37.363 778.558 35.6513C777.91 33.9136 776.885 32.4872 775.485 31.372C774.084 30.2568 772.282 29.4917 770.077 29.0768C767.873 28.6618 765.215 28.4543 762.102 28.4543Z" fill="#14CCAB"/>
</svg>
