<svg width="317" height="96" viewBox="0 0 317 96" fill="none" xmlns="http://www.w3.org/2000/svg">
<path d="M276.889 42.24C278.815 42.24 280.5 42.08 281.944 41.76C283.389 41.44 284.573 40.82 285.495 39.9C286.458 38.94 287.181 37.58 287.662 35.82C288.144 34.06 288.384 31.74 288.384 28.86C288.384 25.66 288.144 22.96 287.662 20.76C287.181 18.56 286.378 16.74 285.255 15.3C284.131 13.86 282.606 12.76 280.681 12C278.795 11.24 276.427 10.68 273.579 10.32C270.73 9.96 267.36 9.76 263.468 9.72C259.576 9.64 255.062 9.6 249.926 9.6C242.864 9.6 236.906 9.7 232.051 9.9C227.236 10.06 223.244 10.4 220.074 10.92C216.944 11.4 214.537 12.08 212.852 12.96C211.167 13.84 209.923 15 209.12 16.44C208.358 17.84 207.897 19.56 207.736 21.6C207.616 23.64 207.556 26.04 207.556 28.8H196C196 23.96 196.522 19.88 197.565 16.56C198.648 13.24 200.213 10.52 202.259 8.4C204.346 6.24 206.914 4.6 209.963 3.48C213.012 2.32 216.523 1.5 220.495 1.02C224.508 0.5 228.961 0.2 233.856 0.12C238.792 0.04 244.148 0 249.926 0C255.704 0 260.94 0.1 265.634 0.3C270.369 0.46 274.582 0.86 278.273 1.5C282.005 2.14 285.235 3.08 287.963 4.32C290.691 5.56 292.938 7.26 294.704 9.42C296.509 11.54 297.833 14.18 298.676 17.34C299.559 20.5 300 24.32 300 28.8C300 31.68 299.799 34.12 299.398 36.12C299.037 38.12 298.455 39.82 297.653 41.22C296.89 42.58 295.907 43.72 294.704 44.64C293.5 45.52 292.056 46.32 290.37 47.04C292.056 47.76 293.5 48.68 294.704 49.8C295.907 50.92 296.89 52.3 297.653 53.94C298.455 55.54 299.037 57.44 299.398 59.64C299.799 61.8 300 64.32 300 67.2C300 71.68 299.559 75.5 298.676 78.66C297.833 81.82 296.509 84.48 294.704 86.64C292.938 88.76 290.691 90.44 287.963 91.68C285.235 92.92 282.005 93.86 278.273 94.5C274.582 95.14 270.369 95.54 265.634 95.7C260.94 95.9 255.704 96 249.926 96C244.148 96 238.792 95.96 233.856 95.88C228.961 95.8 224.508 95.48 220.495 94.92C216.523 94.36 213.012 93.48 209.963 92.28C206.914 91.04 204.346 89.28 202.259 87C200.213 84.72 198.648 81.82 197.565 78.3C196.522 74.78 196 70.44 196 65.28H207.556C207.556 68.32 207.636 70.96 207.796 73.2C207.957 75.4 208.418 77.28 209.181 78.84C209.943 80.4 211.167 81.68 212.852 82.68C214.537 83.64 216.944 84.4 220.074 84.96C223.244 85.52 227.236 85.9 232.051 86.1C236.906 86.3 242.864 86.4 249.926 86.4C255.062 86.4 259.576 86.38 263.468 86.34C267.36 86.26 270.73 86.04 273.579 85.68C276.427 85.32 278.795 84.76 280.681 84C282.606 83.24 284.131 82.14 285.255 80.7C286.378 79.26 287.181 77.44 287.662 75.24C288.144 73.04 288.384 70.34 288.384 67.14C288.384 63.78 288.144 61.1 287.662 59.1C287.181 57.06 286.458 55.5 285.495 54.42C284.573 53.34 283.389 52.64 281.944 52.32C280.5 52 278.815 51.84 276.889 51.84H234.519V42.24H276.889Z" fill="#14CCAB"/>
<path d="M95 0H109L148 86L186 0H200L156 96H140L102 12L64 96H48L0 0H14L56 86L95 0Z" fill="#14CCAB"/>
<path d="M130 74H74L64 96H53L95 0H108L151 96H140L130 74ZM125.586 64L102 12L78.3078 64H125.586Z" fill="#14CCAB"/>
<path d="M316.5 96H306V85.5H316.5V96Z" fill="#14CCAB"/>
</svg>
